<svg width="15" height="25" viewBox="0 0 15 25" fill="none" xmlns="http://www.w3.org/2000/svg">
<path d="M3 12.7407L1.1638 11.0441C0.262193 12.0199 0.281305 13.5305 1.20731 14.4832L3 12.7407ZM13.8362 4.69658C14.7732 3.68247 14.7107 2.10079 13.6966 1.1638C12.6825 0.226807 11.1008 0.28932 10.1638 1.30343L13.8362 4.69658ZM10.2073 23.7425C11.1697 24.7326 12.7524 24.755 13.7425 23.7927C14.7326 22.8303 14.755 21.2476 13.7927 20.2575L10.2073 23.7425ZM4.8362 14.4373L13.8362 4.69658L10.1638 1.30343L1.1638 11.0441L4.8362 14.4373ZM13.7927 20.2575L4.79269 10.9982L1.20731 14.4832L10.2073 23.7425L13.7927 20.2575Z" fill="white"/>
</svg>
