<svg width="214" height="268" viewBox="0 0 214 268" fill="none" xmlns="http://www.w3.org/2000/svg">
<path d="M106.606 266.308L107 266.811L107.394 266.308L112.472 259.825C117.536 253.362 125.29 249.586 133.5 249.586H160H198C206.56 249.586 213.5 242.647 213.5 234.086L213.5 33.1783C213.5 24.6179 206.56 17.6783 198 17.6783H160L133.5 17.6783C125.263 17.6783 117.46 13.9831 112.241 7.61063L107.387 1.6832L107 1.21088L106.613 1.6832L101.759 7.61063C96.5395 13.9831 88.737 17.6783 80.5 17.6783H54H16C7.43959 17.6783 0.5 24.6179 0.5 33.1783L0.5 234.086C0.5 242.647 7.43959 249.586 16 249.586H54H80.5C88.7102 249.586 96.4644 253.362 101.528 259.825L106.606 266.308Z" fill="white" stroke="#CD8C40"/>
</svg>
