<svg width="27" height="27" viewBox="0 0 27 27" fill="none" xmlns="http://www.w3.org/2000/svg">
<circle cx="13.5" cy="13.5" r="13.5" fill="#EDC683"/>
<path d="M15.5 4C15.5 3.17157 14.8284 2.5 14 2.5C13.1716 2.5 12.5 3.17157 12.5 4H15.5ZM12.9393 24.0607C13.5251 24.6464 14.4749 24.6464 15.0607 24.0607L24.6066 14.5147C25.1924 13.9289 25.1924 12.9792 24.6066 12.3934C24.0208 11.8076 23.0711 11.8076 22.4853 12.3934L14 20.8787L5.51472 12.3934C4.92893 11.8076 3.97919 11.8076 3.3934 12.3934C2.80761 12.9792 2.80761 13.9289 3.3934 14.5147L12.9393 24.0607ZM12.5 4L12.5 23H15.5L15.5 4H12.5Z" fill="#785123"/>
</svg>
