<svg width="226" height="116" viewBox="0 0 226 116" fill="none" xmlns="http://www.w3.org/2000/svg">
<g filter="url(#filter0_d)">
<path d="M48.1571 107.001C49.0357 106.806 49.4592 105.944 49.2969 105.212C46.6188 92.4388 51.6554 41.6958 54.3142 28.0468L54.136 26.5499L54.0061 25.9641C54.4779 26.0132 55.8609 26.0139 62.2713 25.8218C69.4788 25.7604 75.9217 25.7148 80.6079 24.6759C82.951 24.1564 84.7898 23.4415 86.092 22.3846C87.6545 21.1164 88.7135 18.2697 88.8288 15.3249C88.8945 14.2349 88.8136 13.1773 88.5539 12.0057C88.2292 10.5413 87.6117 9.14178 86.7337 7.95364C86.2785 7.28635 85.6278 7.12333 85.1885 7.22073C84.7491 7.31812 84.4887 7.5295 84.2608 7.88732C83.2674 9.64395 80.6148 10.8466 76.9537 11.6582C70.8031 13.0218 61.8057 13.3264 52.369 13.7284C42.4606 14.0814 32.1127 14.5317 23.8794 16.2034L21.2434 16.7877C14.6534 18.2487 7.63995 20.5718 4.9687 26.5414C4.54525 27.4035 4.68961 31.5199 5.43633 34.8881C5.95578 37.2312 6.88211 39.3305 8.06955 39.8354C8.57381 40.0309 8.89917 40.1124 9.3385 40.015C9.92428 39.8852 10.4127 39.316 10.3968 38.5513C10.5446 35.7529 13.8486 33.3304 19.2511 31.3645C21.6433 30.3732 24.5397 29.5775 27.6151 28.8957C31.8619 27.9542 36.6456 27.3546 41.5756 26.7225C41.4617 26.9015 41.2337 27.2593 41.2986 27.5522C39.2435 37.6872 34.6283 91.7169 37.2905 103.725L37.7941 105.304C39.1431 107.924 43.7637 107.975 47.4249 107.163L48.1571 107.001ZM73.7847 82.1142C72.3203 82.4389 71.2634 81.1368 70.7115 78.6472C68.796 70.007 72.7279 48.24 79.3179 46.779L80.2291 46.7307C81.9374 46.8129 82.8803 48.2939 83.3348 50.3441C84.049 53.5659 83.6076 57.8121 83.2974 59.8782C82.6447 63.864 78.1456 80.9938 73.7847 82.1142ZM98.0399 88.2601C104.858 86.4413 109.684 65.2442 112.212 53.7753C112.261 53.3035 112.261 53.3035 112.196 53.0106C112.066 52.4248 111.676 52.0504 111.204 52.0014L110.439 52.0173C109.854 52.1471 109.447 52.391 109.316 53.1881C107.115 63.3557 102.044 84.1459 97.2441 85.3637C96.5119 85.526 96.0733 84.2405 95.6187 82.1903C93.5741 71.5814 97.5088 44.2826 98.3737 39.1744L98.3903 38.5561C97.8708 36.213 92.8765 35.1692 89.5083 35.9159C87.751 36.3055 86.5304 37.0371 86.0579 38.3709L85.6171 41.2342C83.2429 38.8413 79.8754 38.2051 76.0679 39.0492L75.9214 39.0817C61.4234 42.2958 55.4571 65.2821 58.6713 79.7801C60.3595 87.3952 64.587 92.6036 71.6488 91.1917L71.9417 91.1268C77.653 89.8606 81.0731 83.1104 83.1427 76.5059C83.3858 78.2957 83.564 79.7926 83.8887 81.257C84.4406 83.7466 85.2205 85.8783 86.4238 87.148C88.7165 89.8662 92.6214 89.4614 96.2825 88.6497L98.0399 88.2601ZM123.771 82.5558C128.164 81.5818 133.225 80.1526 136.547 74.346C138.419 71.0116 139.967 67.5957 141.417 63.7405C143.453 58.3725 145.181 52.3047 146.583 46.1555L146.599 45.5372C146.47 44.9514 146.079 44.577 145.575 44.3815C145.25 44.3 144.957 44.365 144.81 44.3974C144.225 44.5273 143.818 44.7711 143.655 45.4218C142.122 52.3683 140.411 57.8178 138.798 62.3237C137.234 66.3578 135.035 70.9936 133.586 73.4659C134.449 71.1235 134.744 68.2927 134.729 64.7621C134.697 63.2328 134.519 61.7358 134.194 60.2714C132.798 53.9743 129.385 48.2781 128.021 42.1275C127.177 38.3199 127.179 34.1711 128.938 29.6327C129.166 29.2749 129.069 28.8356 129.004 28.5427C128.842 27.8105 128.126 27.3546 127.247 27.5494L116.411 29.9518C113.628 30.5687 109.974 50.1231 109.387 53.0189C109.305 53.3442 109.403 53.7836 109.468 54.0764C109.63 54.8087 110.102 54.8577 110.427 54.9392C110.752 55.0207 110.899 54.9883 111.192 54.9233C111.631 54.8259 112.152 54.4032 112.347 53.8989L115.087 41.3075C115.168 42.3651 115.395 43.3902 115.622 44.4153C117.051 50.8588 120.626 58.6701 122.185 65.6995C123.094 69.7999 123.32 73.5909 121.854 76.6814C121.316 77.7224 120.454 78.6819 119.575 78.8767C119.282 78.9416 118.989 79.0066 118.631 78.7786C117.948 78.4691 117.493 77.8018 117.233 76.6303C116.551 73.5549 117.465 67.9749 119.386 65.5516C119.761 65.1614 119.81 64.6896 119.745 64.3967C119.29 62.3464 114.362 60.2126 110.993 60.9593C109.822 61.2191 108.748 61.9181 108.243 63.1056C106.728 66.6679 106.335 70.4423 107.082 73.8105C108.478 80.1076 113.812 84.7635 122.453 82.848L123.771 82.5558ZM158.383 74.8824C161.133 74.1191 163.201 70.2805 164.504 67.8407C168.022 60.1468 171.038 48.1087 172.555 40.3976C172.637 40.0722 172.572 39.7793 172.572 39.7793C172.442 39.1935 172.051 38.8191 171.547 38.6237C171.222 38.5421 170.929 38.6071 170.783 38.6395C170.197 38.7694 169.79 39.0132 169.659 39.8104C168.126 46.7568 165.257 58.7625 162.081 65.9196C161.348 67.4649 159.345 71.5964 157.734 71.9535C157.294 72.0509 157.083 71.7905 156.856 70.7654C156.271 68.1294 156.258 61.833 156.356 60.8894C156.526 47.7923 158.161 31.6046 159.714 17.1253C162.789 16.4435 165.571 15.8267 168.093 15.4212C169.119 15.1939 169.542 14.3319 169.38 13.5996C169.217 12.8674 168.469 12.2651 167.591 12.4598L160.236 13.9367C160.775 10.1298 161.378 6.61587 162.047 3.39479L162.096 2.92299C161.609 0.726321 155.818 -0.448016 152.01 0.396099C150.253 0.78569 148.886 1.54968 148.739 2.96508C147.988 6.51152 147.173 11.148 146.373 16.5492L137.261 18.4156C136.382 18.6104 135.959 19.4725 136.121 20.2047C136.251 20.7905 136.999 21.3928 137.91 21.3445C140.253 20.825 143.036 20.2082 145.997 19.7053C143.825 35.551 142.041 55.9199 144.574 67.3425C145.158 69.9785 146.117 72.2243 147.206 73.6728C149.206 76.4559 152.672 76.1486 156.186 75.3694L158.383 74.8824ZM186.096 97.4696C198.397 94.7425 201.821 81.0776 203.535 70.0964C208.873 66.4546 212.39 61.5266 215.077 54.9387C217.765 48.3508 219.592 39.9565 221.728 29.4961C221.81 29.1708 221.745 28.8779 221.712 28.7314C221.55 27.9992 220.688 27.5758 219.956 27.7381C219.516 27.8355 218.996 28.2582 218.833 28.9089C216.664 39.2229 214.951 47.4383 212.231 53.8797C210.276 58.9224 207.768 62.8584 204.155 65.9641C205.478 55.9914 206.411 44.2614 207.311 33.7678C207.803 26.284 208.311 19.5648 209.029 14.489L209.046 13.8707C208.526 11.5276 203.564 10.6303 200.05 11.4095C198.146 11.8315 196.665 12.7744 196.518 14.1898C195.783 19.8839 195.194 25.5455 194.866 30.9957C193.429 42.5303 191.423 50.8106 189.566 56.2926C187.122 63.2873 184.761 65.808 183.183 66.3115C182.451 66.4739 181.817 65.6926 181.492 64.2281C179.576 55.5879 183.741 23.7826 184.345 20.2686L184.362 19.6504C183.842 17.3073 178.815 16.117 175.301 16.8962C173.543 17.2858 172.355 18.1638 172.029 19.4652C170.301 26.9159 167.23 50.4893 169.86 62.3513C170.412 64.8408 171.159 66.8261 172.363 68.0958C174.655 70.814 178.56 70.4092 182.221 69.5975L184.125 69.1755C188.193 68.12 191.451 60.6375 193.537 53.4148C193.241 60.3944 193.076 63.811 192.309 69.3586C179.177 73.1916 172.244 77.9552 172.825 87.5059L173.198 89.8814C174.431 95.4463 178.676 98.6536 185.071 97.6969L186.096 97.4696ZM181.446 91.7403C178.224 92.4546 176.777 90.7781 176.257 88.435C176.062 87.5563 175.982 86.4987 176.047 85.4087C176.375 79.9585 179.973 76.0881 191.965 72.6612C190.415 81.6088 187.01 90.5066 181.446 91.7403Z" fill="white"/>
</g>
<defs>
<filter id="filter0_d" x="0.733643" y="0.12146" width="225.034" height="115.504" filterUnits="userSpaceOnUse" color-interpolation-filters="sRGB">
<feFlood flood-opacity="0" result="BackgroundImageFix"/>
<feColorMatrix in="SourceAlpha" type="matrix" values="0 0 0 0 0 0 0 0 0 0 0 0 0 0 0 0 0 0 127 0" result="hardAlpha"/>
<feOffset dy="4"/>
<feGaussianBlur stdDeviation="2"/>
<feComposite in2="hardAlpha" operator="out"/>
<feColorMatrix type="matrix" values="0 0 0 0 0 0 0 0 0 0 0 0 0 0 0 0 0 0 0.25 0"/>
<feBlend mode="normal" in2="BackgroundImageFix" result="effect1_dropShadow"/>
<feBlend mode="normal" in="SourceGraphic" in2="effect1_dropShadow" result="shape"/>
</filter>
</defs>
</svg>
